<?xml version="1.0" encoding="UTF-8"?>
<svg id="Layer_2" data-name="Layer 2" xmlns="http://www.w3.org/2000/svg" viewBox="0 0 165.61 167.17">
  <defs>
    <style>
      .cls-1 {
        fill: #f7931e;
        stroke-width: 0px;
      }
    </style>
  </defs>
  <g id="Layer_1-2" data-name="Layer 1">
    <path class="cls-1" d="m88.62,15.48c3.4.36,6.76.91,10.07,1.74,10.43,2.64,19.73,7.45,27.89,14.45,8.01,6.88,14.12,15.17,18.31,24.87,2.62,6.06,4.31,12.38,5.06,18.94.06.5.12,1,.18,1.5-3.92,0-7.85.01-11.77.02-1.32,0-2.64-.01-3.96-.02-.27-2.37-.7-4.72-1.35-7.01-4.71-16.54-14.96-28.25-30.7-35.14-4.37-1.91-8.97-3.09-13.72-3.64,0-5.24,0-10.47,0-15.71Z"/>
    <path class="cls-1" d="m150.13,90.22c-.5,5.04-1.51,9.98-3.1,14.79-3.01,9.1-7.72,17.21-14.12,24.34-5.71,6.35-12.38,11.46-19.99,15.32-6.45,3.27-13.25,5.45-20.4,6.54-1.29.2-2.58.37-3.88.48,0-1.9-.02-3.8-.02-5.69,0-3.33.01-6.66.02-9.99,2.65-.29,5.27-.79,7.82-1.56,16.52-5,28.09-15.49,34.7-31.42,1.7-4.1,2.74-8.38,3.25-12.79,1.41,0,2.83-.02,4.24-.02,3.83,0,7.66.01,11.49.02Z"/>
    <path class="cls-1" d="m13.93,76.99c.54-6.09,1.93-11.99,4.1-17.69,3.77-9.9,9.54-18.48,17.29-25.71,8.54-7.96,18.48-13.39,29.79-16.31,3.38-.87,6.81-1.44,10.28-1.79,0,1.7.02,3.39.02,5.09,0,3.54-.01,7.08-.02,10.62-2.64.28-5.24.78-7.77,1.55-17.61,5.39-29.54,16.77-35.73,34.12-1.17,3.27-1.89,6.66-2.27,10.12-3.44,0-6.89.02-10.33.02-1.79,0-3.57-.01-5.36-.02Z"/>
    <path class="cls-1" d="m75.39,151.69c-8.06-.75-15.74-2.91-23.04-6.41-7.82-3.76-14.68-8.83-20.56-15.21-8-8.67-13.42-18.74-16.24-30.21-.78-3.17-1.33-6.38-1.61-9.64,2.08,0,4.17-.02,6.25-.02,3.14,0,6.29.01,9.43.02.16,1.63.46,3.24.82,4.84,2.25,10.06,7.05,18.74,14.32,26.03,4.01,4.02,8.57,7.28,13.65,9.81,5.37,2.67,11.02,4.39,16.98,5.1,0,4.22.02,8.45.02,12.67,0,1-.02,2.01-.02,3.01Z"/>
    <path class="cls-1" d="m82.03,60.17c12.98.03,23.46,10.55,23.4,23.48-.06,12.96-10.52,23.38-23.46,23.38-12.94,0-23.45-10.55-23.4-23.49.05-12.96,10.52-23.4,23.46-23.37Z"/>
    <path class="cls-1" d="m82.01,0c4.29.01,7.75,3.49,7.73,7.76-.02,4.28-3.48,7.73-7.75,7.72-4.28,0-7.75-3.49-7.73-7.76C74.28,3.44,77.74-.01,82.01,0Z"/>
    <path class="cls-1" d="m157.88,75.86c4.29.01,7.75,3.49,7.73,7.76-.02,4.28-3.48,7.73-7.75,7.72-4.28,0-7.75-3.49-7.73-7.76.02-4.28,3.48-7.73,7.75-7.72Z"/>
    <path class="cls-1" d="m7.75,75.86c4.29.01,7.75,3.49,7.73,7.76-.02,4.28-3.48,7.73-7.75,7.72C3.46,91.34-.02,87.86,0,83.58c.02-4.28,3.48-7.73,7.75-7.72Z"/>
    <path class="cls-1" d="m116.4,75.86c4.29.01,7.75,3.49,7.73,7.76-.02,4.28-3.48,7.73-7.75,7.72-4.28,0-7.75-3.49-7.73-7.76.02-4.28,3.48-7.73,7.75-7.72Z"/>
    <path class="cls-1" d="m47.63,75.86c4.29.01,7.75,3.49,7.73,7.76-.02,4.28-3.48,7.73-7.75,7.72-4.28,0-7.75-3.49-7.73-7.76.02-4.28,3.48-7.73,7.75-7.72Z"/>
    <path class="cls-1" d="m82.01,151.69c4.29.01,7.75,3.49,7.73,7.76-.02,4.28-3.48,7.73-7.75,7.72-4.28,0-7.75-3.49-7.73-7.76.02-4.28,3.48-7.73,7.75-7.72Z"/>
  </g>
</svg>